HIERARCHY
ROOT hip
{
  OFFSET 0 0 0
  CHANNELS 6 Xposition Yposition Zposition Zrotation Yrotation Xrotation
  JOINT abdomen
  {
    OFFSET 0 20.6881 -0.73152
    CHANNELS 3 Zrotation Xrotation Yrotation
    JOINT chest
    {
      OFFSET 0 11.7043 -0.48768
      CHANNELS 3 Zrotation Xrotation Yrotation
      JOINT neck
      {
        OFFSET 0 22.1894 -2.19456
        CHANNELS 3 Zrotation Xrotation Yrotation
        JOINT head
        {
          OFFSET -0.24384 7.07133 1.2192
          CHANNELS 3 Zrotation Xrotation Yrotation
          JOINT leftEye
          {
            OFFSET 4.14528 8.04674 8.04672
            CHANNELS 3 Zrotation Xrotation Yrotation
            End Site
            {
              OFFSET 1 0 0
            }
          }
          JOINT rightEye
          {
            OFFSET -3.6576 8.04674 8.04672
            CHANNELS 3 Zrotation Xrotation Yrotation
            End Site
            {
              OFFSET 1 0 0
            }
          }
        }
      }
      JOINT rCollar
      {
        OFFSET -2.68224 19.2634 -4.8768
        CHANNELS 3 Zrotation Xrotation Yrotation
        JOINT rShldr
        {
          OFFSET -8.77824 -1.95073 1.46304
          CHANNELS 3 Zrotation Xrotation Yrotation
          JOINT rForeArm
          {
            OFFSET -28.1742 -1.7115 0.48768
            CHANNELS 3 Zrotation Xrotation Yrotation
            JOINT rHand
            {
              OFFSET -22.5879 0.773209 7.07136
              CHANNELS 3 Zrotation Xrotation Yrotation
              JOINT rThumb1
              {
                OFFSET -1.2192 -0.487915 3.41376
                CHANNELS 3 Zrotation Xrotation Yrotation
                JOINT rThumb2
                {
                  OFFSET -3.37035 -0.52449 3.41376
                  CHANNELS 3 Zrotation Xrotation Yrotation
                  End Site
                  {
                    OFFSET -1.78271 -1.18214 1.43049
                  }
                }
              }
              JOINT rIndex1
              {
                OFFSET -7.75947 0.938293 5.60832
                CHANNELS 3 Zrotation Xrotation Yrotation
                JOINT rIndex2
                {
                  OFFSET -2.54057 -0.884171 1.56538
                  CHANNELS 3 Zrotation Xrotation Yrotation
                  End Site
                  {
                    OFFSET -1.62519 -0.234802 1.16502
                  }
                }
              }
              JOINT rMid1
              {
                OFFSET -8.24714 1.18213 3.41376
                CHANNELS 3 Zrotation Xrotation Yrotation
                JOINT rMid2
                {
                  OFFSET -3.10165 -0.590103 1.0647
                  CHANNELS 3 Zrotation Xrotation Yrotation
                  End Site
                  {
                    OFFSET -2.48547 -0.328903 0.83742
                  }
                }
              }
              JOINT rRing1
              {
                OFFSET -8.82822 0.546677 1.51678
                CHANNELS 3 Zrotation Xrotation Yrotation
                JOINT rRing2
                {
                  OFFSET -2.60934 -0.819778 -0.0198488
                  CHANNELS 3 Zrotation Xrotation Yrotation
                  End Site
                  {
                    OFFSET -2.33842 -0.294052 0.168128
                  }
                }
              }
              JOINT rPinky1
              {
                OFFSET -8.27202 -0.0477905 -0.4584
                CHANNELS 3 Zrotation Xrotation Yrotation
                JOINT rPinky2
                {
                  OFFSET -1.82734 -0.647385 -0.700984
                  CHANNELS 3 Zrotation Xrotation Yrotation
                  End Site
                  {
                    OFFSET -1.69225 -0.51767 -0.607171
                  }
                }
              }
            }
          }
        }
      }
      JOINT lCollar
      {
        OFFSET 2.68224 19.2634 -4.8768
        CHANNELS 3 Zrotation Xrotation Yrotation
        JOINT lShldr
        {
          OFFSET 8.77824 -1.95073 1.46304
          CHANNELS 3 Zrotation Xrotation Yrotation
          JOINT lForeArm
          {
            OFFSET 28.1742 -1.7115 0.48768
            CHANNELS 3 Zrotation Xrotation Yrotation
            JOINT lHand
            {
              OFFSET 22.5879 0.773209 7.07136
              CHANNELS 3 Zrotation Xrotation Yrotation
              JOINT lThumb1
              {
                OFFSET 1.2192 -0.487915 3.41376
                CHANNELS 3 Zrotation Xrotation Yrotation
                JOINT lThumb2
                {
                  OFFSET 3.37035 -0.52449 3.41376
                  CHANNELS 3 Zrotation Xrotation Yrotation
                  End Site
                  {
                    OFFSET 1.78271 -1.18214 1.43049
                  }
                }
              }
              JOINT lIndex1
              {
                OFFSET 7.75947 0.938293 5.60832
                CHANNELS 3 Zrotation Xrotation Yrotation
                JOINT lIndex2
                {
                  OFFSET 2.54057 -0.884171 1.56538
                  CHANNELS 3 Zrotation Xrotation Yrotation
                  End Site
                  {
                    OFFSET 1.62519 -0.234802 1.16502
                  }
                }
              }
              JOINT lMid1
              {
                OFFSET 8.24714 1.18213 3.41376
                CHANNELS 3 Zrotation Xrotation Yrotation
                JOINT lMid2
                {
                  OFFSET 3.10165 -0.590103 1.0647
                  CHANNELS 3 Zrotation Xrotation Yrotation
                  End Site
                  {
                    OFFSET 2.48547 -0.328903 0.83742
                  }
                }
              }
              JOINT lRing1
              {
                OFFSET 8.82822 0.546677 1.51678
                CHANNELS 3 Zrotation Xrotation Yrotation
                JOINT lRing2
                {
                  OFFSET 2.60934 -0.819778 -0.0198488
                  CHANNELS 3 Zrotation Xrotation Yrotation
                  End Site
                  {
                    OFFSET 2.33842 -0.294052 0.168128
                  }
                }
              }
              JOINT lPinky1
              {
                OFFSET 8.27202 -0.0477905 -0.4584
                CHANNELS 3 Zrotation Xrotation Yrotation
                JOINT lPinky2
                {
                  OFFSET 1.82734 -0.647385 -0.700984
                  CHANNELS 3 Zrotation Xrotation Yrotation
                  End Site
                  {
                    OFFSET 1.69225 -0.51767 -0.607171
                  }
                }
              }
            }
          }
        }
      }
    }
  }
  JOINT rButtock
  {
    OFFSET -8.77824 4.35084 1.2192
    CHANNELS 3 Zrotation Xrotation Yrotation
    JOINT rThigh
    {
      OFFSET 0 -1.70687 -2.19456
      CHANNELS 3 Zrotation Xrotation Yrotation
      JOINT rShin
      {
        OFFSET 0 -36.8199 0.73152
        CHANNELS 3 Zrotation Xrotation Yrotation
        JOINT rFoot
        {
          OFFSET 0.73152 -45.1104 -5.12064
          CHANNELS 3 Zrotation Xrotation Yrotation
          End Site
          {
            OFFSET -1.1221 -3.69964 12.103
          }
        }
      }
    }
  }
  JOINT lButtock
  {
    OFFSET 8.77824 4.35084 1.2192
    CHANNELS 3 Zrotation Xrotation Yrotation
    JOINT lThigh
    {
      OFFSET 0 -1.70687 -2.19456
      CHANNELS 3 Zrotation Xrotation Yrotation
      JOINT lShin
      {
        OFFSET 0 -36.8199 0.73152
        CHANNELS 3 Zrotation Xrotation Yrotation
        JOINT lFoot
        {
          OFFSET -0.73152 -45.1104 -5.12064
          CHANNELS 3 Zrotation Xrotation Yrotation
          End Site
          {
            OFFSET 1.1221 -3.69964 12.103
          }
        }
      }
    }
  }
}
MOTION
Frames:	4
Frame Time:	0.03333
-0.5797700025141239 57.97560214996338 -1.7529500648379326 -8.21210036364641 -25.237099898259185 14.018499672361257 -3.063039954757473 11.499199764927686 14.085399667734238 2.595240085059888 -10.831099688621011 3.876999788006828 -4.515289930567805 11.883099938738361 2.15998009034189 8.64402957392697 -27.909800731809366 6.815020173639799 -0.0 0.0 0.0 -0.0 0.0 0.0 1.317670024240326e-14 1.722110012223988e-13 -6.769199823131251e-13 -6.814200124052574 38.48110136874425 94.9418014633333 -23.614299885430224 -18.45969955279417 48.165899800472125 -0.05031639945484391 6.492449975933961 0.9161580328095515 6.395179812548039e-11 2.513030002936001e-09 -1.6717500318827926e-09 9.968759735933771e-11 4.311980156979232e-09 -2.879519951695017e-09 6.395850089599074e-11 2.5130099256845744e-09 -1.6717599711161722e-09 7.730910121524428 5.474879855648998 0.41731399283890674 6.395310264986146e-11 2.513030002936001e-09 -1.6717599711161722e-09 2.90554006136521 0.9651829962377875 0.10290200252939893 6.396009738535234e-11 2.513030002936001e-09 -1.6717500318827926e-09 10.278599710243157 0.7318009818271524 0.025912300303053633 6.395089738245536e-11 2.513030002936001e-09 -1.6717500318827926e-09 2.221669932038622 -0.7334870246959406 -0.20891999872313852 1.305759960511516e-14 1.722080044076469e-13 -6.772430073979613e-13 13.838299645262456 4.287279859939385 -111.35299751044641 23.411600361431756 -50.11850062001703 -105.09500060796232 0.15846400394207916 -11.32269999281174 1.6123299731615672 -1.779689907600293e-09 -1.8221000200769305e-09 -1.0662200294600272e-09 -3.072029981253962e-09 -3.1347300447516606e-09 -1.851819918159196e-09 -1.7796799683669135e-09 -1.8220700035921241e-09 -1.066209990834314e-09 -7.730910121524428 5.474879855648998 -0.41731399283890674 -1.7796799683669135e-09 -1.822090080843551e-09 -1.066209990834314e-09 -2.90554006136521 0.9651829962377875 -0.10290200252939893 -1.779689907600293e-09 -1.822090080843551e-09 -1.0662200294600272e-09 -10.278599710243157 0.7318009818271524 -0.025912300303053633 -1.7796799683669135e-09 -1.822090080843551e-09 -1.0662200294600272e-09 -2.221669932038622 -0.7334870246959406 0.20891999872313852 -2.0321699793705798e-16 0.0 -3.882510030490358e-19 -19.69790015119618 1.4563799991023685 -1.6111899719004097 -0.2705610018992623 49.2640985963618 2.4910299679022994 1.0469400404377227 -0.8235740181972354 -17.00779941073539 2.0321699793705798e-16 0.0 3.882510030490358e-19 56.792800967508 -52.8191983989751 65.04400074905814 2.599949927379435 72.08229895289202 -2.494049978732503 3.9336698675504236 0.31376600382441266 26.927899566917503
-1.2238699942827225 58.12219977378845 -3.5852501168847084 -9.945200247608263 -28.715798912364015 14.745999342558594 -1.9875500437542142 11.395000106497264 14.997500568176804 2.705380087077517 -10.956500254235152 4.205969872964968 -3.8994501929218366 11.886299882364513 2.8511000385856233 7.948869995675997 -26.98620035412544 7.896000062631867 -0.0 0.0 0.0 -0.0 0.0 0.0 -2.333820082038425e-13 -1.8289699958644417e-13 -1.0731699910340348e-12 -8.01518003345942 42.455701144895976 94.50369946959034 -25.578199545409625 -22.507199645504734 55.2915014822771 -0.10201599892800135 8.994759787807125 1.2748600379464632 3.1942499511372313e-09 1.2703699946221246e-08 -4.843139945031673e-09 5.486149901997805e-09 2.1895900544985992e-08 -8.370500321115294e-09 3.194260089155278e-09 1.2703699946221246e-08 -4.843149884265052e-09 7.730910121524428 5.474879855648998 0.41731399283890674 3.1942499511372313e-09 1.2703699946221246e-08 -4.843139945031673e-09 2.90554006136521 0.9651829962377875 0.10290200252939893 3.1942499511372313e-09 1.2703699946221246e-08 -4.843139945031673e-09 10.278599710243157 0.7318009818271524 0.025912300303053633 3.1942400119038515e-09 1.2703699946221246e-08 -4.843130005798293e-09 2.221669932038622 -0.7334870246959406 -0.20891999872313852 -2.3360100620494275e-13 -1.8289400277169228e-13 -1.0735100021134163e-12 14.560899508503956 9.076610213499618 -105.84600039777273 22.948899441392996 -50.646600601358664 -106.45700180016539 0.10308699793626447 -9.158620294863962 1.2982100001195038 -2.20756992889758e-09 -1.7230199769939818e-09 -2.6341000035172533e-09 -3.814859857835819e-09 -2.970729911003352e-09 -4.558260047628996e-09 -2.2075599896642006e-09 -1.7230100377606023e-09 -2.6340799262658267e-09 -7.730910121524428 5.474879855648998 -0.41731399283890674 -2.20756992889758e-09 -1.7230199769939818e-09 -2.6341000035172533e-09 -2.90554006136521 0.9651829962377875 -0.10290200252939893 -2.207580066915627e-09 -1.7230199769939818e-09 -2.6341000035172533e-09 -10.278599710243157 0.7318009818271524 -0.025912300303053633 -2.20756992889758e-09 -1.7230199769939818e-09 -2.6341000035172533e-09 -2.221669932038622 -0.7334870246959406 0.20891999872313852 -2.0321699793705798e-16 0.0 -3.882510030490358e-19 -19.58419969963027 2.531340036836422 0.5263549747303984 -0.1486479949083527 43.18040129130725 2.2657799340287994 1.3052300472041019 -0.3857909889524318 -13.723299750206952 2.0321699793705798e-16 0.0 3.882510030490358e-19 60.07330325982469 -51.00629885361904 65.73680049695088 2.479949906964658 71.77539806291584 -2.5451500390079533 3.386959968598035 1.1744400354479971 27.502800004452062
-1.806759973987937 58.149802684783936 -5.396540090441704 -12.169500015920752 -31.237699414324066 15.905999397605832 -0.2461380063354421 11.14969983887178 14.946299762611096 2.807650003623999 -10.882700060253166 4.266370089569037 -3.2487098961643954 11.708499812985325 3.6613600437389473 7.048389808332564 -25.57920016812303 9.148460388473568 -0.0 0.0 0.0 -0.0 0.0 0.0 -2.4702998789811485e-13 -4.1812200033129087e-13 -9.707590033505585e-13 -7.621939575958751 48.25899869395399 92.2435967034223 -27.34550074786667 -27.345200219543187 62.5167009825592 -0.10603499829549189 8.557469732801751 1.2095000367879072 3.5320699824282e-09 1.4356899790493738e-08 -5.3439799028750564e-09 6.071459826210168e-09 2.4765799318769584e-08 -9.240000359933792e-09 3.5320799216615793e-09 1.4356899790493738e-08 -5.344000178911151e-09 7.730910121524428 5.474879855648998 0.41731399283890674 3.5320699824282e-09 1.4356899790493738e-08 -5.3439799028750564e-09 2.90554006136521 0.9651829962377875 0.10290200252939893 3.5320699824282e-09 1.4356899790493738e-08 -5.3439799028750564e-09 10.278599710243157 0.7318009818271524 0.025912300303053633 3.53206004319482e-09 1.4356899790493738e-08 -5.343969963641677e-09 2.221669932038622 -0.7334870246959406 -0.20891999872313852 -2.4724799100524886e-13 -4.1811700159575325e-13 -9.71102023377545e-13 13.574699593303215 15.732700422889684 -101.38900143601593 22.760999229778655 -50.78949840407909 -106.98899840442851 0.11036599856983449 -8.760110346418628 1.2460000341039263 -1.4247000494307788e-09 -6.233260010042242e-10 -3.5558998908097302e-09 -2.45146003027356e-09 -1.0718600474412662e-09 -6.150539945102071e-09 -1.4247000494307788e-09 -6.233209816913675e-10 -3.555880012342971e-09 -7.730910121524428 5.474879855648998 -0.41731399283890674 -1.4247000494307788e-09 -6.233219756147055e-10 -3.5558899515763504e-09 -2.90554006136521 0.9651829962377875 -0.10290200252939893 -1.4247099886641584e-09 -6.233240131575482e-10 -3.5558899515763504e-09 -10.278599710243157 0.7318009818271524 -0.025912300303053633 -1.4247000494307788e-09 -6.233240131575482e-10 -3.5558998908097302e-09 -2.221669932038622 -0.7334870246959406 0.20891999872313852 -2.0321699793705798e-16 0.0 -3.882510030490358e-19 -18.47380047833566 3.471089969926021 2.040889979190606 -0.0806565966709831 38.29950029909195 2.1034299659955926 1.3787900106263755 -0.39893899638300057 -12.726899801254444 2.0321699793705798e-16 0.0 3.882510030490358e-19 63.370501949567476 -50.12899862077134 65.79439948222159 2.4285499586959616 71.74419775878722 -2.6161601007139907 2.7172900159993154 2.0493799043289314 27.226600814795084
-2.267869981005788 58.0049991607666 -7.082040049135685 -14.296700107445046 -32.6658987999629 17.139700608892092 2.148079979817024 10.759399777808802 13.934899864467594 2.902450041096014 -10.609999634998529 4.058330211413265 -2.55420003965822 11.349300164534355 4.589059815585351 5.895210124058406 -23.691499806071587 10.558799683206466 -0.0 0.0 0.0 -0.0 0.0 0.0 -2.7767699888837008e-14 -5.33463988879288e-13 -3.6969500268013195e-13 -4.190940041696355 55.61490069419345 86.29790337054786 -28.33520028124339 -32.72990108758051 71.0713011821359 -0.08216770265367569 5.180079926447962 0.7237839939279971 1.0774199552014657e-09 7.472830109483077e-09 -3.1742899826643716e-09 1.8556099466314949e-09 1.2921500355114516e-08 -5.4880200681505056e-09 1.0774199552014657e-09 7.472810231016317e-09 -3.1742899826643716e-09 7.730910121524428 5.474879855648998 0.41731399283890674 1.0774199552014657e-09 7.472830109483077e-09 -3.174280043430992e-09 2.90554006136521 0.9651829962377875 0.10290200252939893 1.0774299938271792e-09 7.472830109483077e-09 -3.174280043430992e-09 10.278599710243157 0.7318009818271524 0.025912300303053633 1.0774199552014657e-09 7.472819772680362e-09 -3.174269905412945e-09 2.221669932038622 -0.7334870246959406 -0.20891999872313852 -2.7885300602142504e-14 -5.334630182510283e-13 -3.7000800602818647e-13 9.596239906496788 25.07919958502683 -92.08430303159926 22.872000049075115 -50.56579946347741 -106.66000185248734 0.16984200520183615 -10.127499704103196 1.453000015958564 5.689179914342692e-10 1.4769999972970932e-09 -3.831609851496412e-09 1.018200014879291e-09 2.561870004270552e-09 -6.628660008147756e-09 5.689199792809452e-10 1.4769999972970932e-09 -3.831599912263032e-09 -7.730910121524428 5.474879855648998 -0.41731399283890674 5.6892102290045e-10 1.4769999972970932e-09 -3.831609851496412e-09 -2.90554006136521 0.9651829962377875 -0.10290200252939893 5.689160035875933e-10 1.4769999972970932e-09 -3.831609851496412e-09 -10.278599710243157 0.7318009818271524 -0.025912300303053633 5.689269864404778e-10 1.4769999972970932e-09 -3.831609851496412e-09 -2.221669932038622 -0.7334870246959406 0.20891999872313852 -2.0321699793705798e-16 0.0 -3.882510030490358e-19 -16.325099805077816 4.276900106835082 2.9314000113365246 -0.038770601658118735 34.62179860087692 1.9699800224445911 1.2899599853757748 -0.8701060159392695 -14.018499672361257 2.0321699793705798e-16 0.0 3.882510030490358e-19 66.71730147306289 -50.18039920937027 65.2290988755655 2.448939994359154 71.98860241785778 -2.7101200249180946 1.964049924141139 2.958100074575751 26.098600196009357
